<?xml version="1.0" encoding="utf-8"?>
<!-- Generator: Adobe Illustrator 24.2.1, SVG Export Plug-In . SVG Version: 6.00 Build 0)  -->
<svg version="1.0" id="logo" xmlns="http://www.w3.org/2000/svg" xmlns:xlink="http://www.w3.org/1999/xlink" x="0px" y="0px"
	 viewBox="0 0 1200 263.56" style="enable-background:new 0 0 1200 263.56;" xml:space="preserve">
<style type="text/css">
	.st0{fill:url(#SVGID_1_);}
</style>
<linearGradient id="SVGID_1_" gradientUnits="userSpaceOnUse" x1="799.5106" y1="511.2582" x2="469.8864" y2="-187.4648">
	<stop  offset="0.2227" style="stop-color:#01F5BD"/>
	<stop  offset="0.3289" style="stop-color:#5883FF"/>
	<stop  offset="0.5591" style="stop-color:#D61F8F"/>
	<stop  offset="0.7737" style="stop-color:#FF4440"/>
	<stop  offset="1" style="stop-color:#FFC304"/>
</linearGradient>
<path class="st0" d="M222.86,66.79v-0.34c0-26.87-21.79-48.66-48.66-48.66c-26.87,0-48.66,21.79-48.66,48.66v0.34
	c0,26.87,21.79,48.66,48.66,48.66C201.07,115.45,222.86,93.67,222.86,66.79z M164.95,66.65v-0.06c0-5.11,4.14-9.25,9.25-9.25
	c5.11,0,9.25,4.14,9.25,9.25v0.06c0,5.11-4.14,9.25-9.25,9.25C169.09,75.9,164.95,71.76,164.95,66.65z M302.17,77.61V66.97
	c0-4.83-3.91-8.77-8.77-8.77c-2.4,0-4.6,0.99-6.21,2.56c-1.58,1.61-2.56,3.81-2.56,6.21v10.64v16.49v57.87V158v21.08
	c0,31.66-25.65,57.31-57.31,57.31c-31.66,0-57.34-25.65-57.34-57.31v-10.64v-7.68v-7.98c0-13.4,10.87-24.27,24.3-24.27
	c6.7,0,12.78,2.73,17.18,7.13c4.37,4.37,7.09,10.44,7.09,17.14v7.98v7.68v10.64c0,4.83,3.91,8.77,8.77,8.77
	c2.4,0,4.6-0.99,6.21-2.56c1.58-1.61,2.56-3.81,2.56-6.21V158v-6.04V94.09V77.61V66.97c0-31.66,25.65-57.34,57.31-57.34
	c31.66,0,57.34,25.68,57.34,57.34v10.64v16.49v7.98c0,13.4-10.87,24.27-24.3,24.27c-6.7,0-12.78-2.73-17.18-7.13
	c-4.37-4.37-7.09-10.44-7.09-17.14v-7.98V77.61z M410.3,227.32c0,13.43-10.87,24.3-24.27,24.3h-26.3
	c-15.58,0-29.69-6.23-40.02-16.31c-0.16-0.16-0.34-0.31-0.5-0.48c-0.16-0.16-0.32-0.33-0.48-0.5
	c-10.09-10.33-16.31-24.44-16.31-40.02v-10.64V176v-7.98c0-13.4,10.87-24.27,24.3-24.27c6.7,0,12.78,2.73,17.18,7.13
	c4.37,4.37,7.09,10.44,7.09,17.14V176v7.68v10.64c0,2.41,0.97,4.6,2.55,6.18c1.59,1.58,3.78,2.55,6.18,2.55h26.3
	c6.7,0,12.78,2.73,17.14,7.09C407.57,214.55,410.3,220.62,410.3,227.32z M436.67,165c-7.13,0-13.7-1.2-19.71-3.59
	c-6.01-2.39-11.17-5.66-15.48-9.81c-4.31-4.15-7.66-8.96-10.05-14.44c-2.39-5.48-3.59-11.3-3.59-17.47v-0.32
	c0-6.17,1.22-12.02,3.67-17.55c2.45-5.53,5.82-10.37,10.13-14.52c4.31-4.15,9.47-7.45,15.48-9.89c6.01-2.45,12.63-3.67,19.87-3.67
	c7.13,0,13.7,1.2,19.71,3.59c6.01,2.39,11.17,5.66,15.48,9.81c4.31,4.15,7.66,8.96,10.05,14.44c2.39,5.48,3.59,11.3,3.59,17.47v0.32
	c0,6.17-1.22,12.02-3.67,17.55c-2.45,5.53-5.82,10.37-10.13,14.52s-9.49,7.45-15.56,9.89C450.4,163.77,443.8,165,436.67,165z
	 M436.99,134.68c4.04,0,7.39-1.47,10.05-4.42c2.66-2.95,3.99-6.48,3.99-10.58v-0.32c0-4.32-1.38-7.95-4.15-10.9
	c-2.77-2.95-6.17-4.42-10.21-4.42c-4.04,0-7.4,1.48-10.05,4.42c-2.66,2.95-3.99,6.48-3.99,10.58v0.32c0,4.32,1.38,7.95,4.15,10.9
	C429.55,133.2,432.95,134.68,436.99,134.68z M493.96,75.8h36.38v12.13c1.38-1.81,2.97-3.56,4.77-5.27c1.8-1.7,3.82-3.22,6.05-4.55
	c2.23-1.33,4.64-2.39,7.24-3.19c2.6-0.8,5.44-1.2,8.52-1.2c9.23,0,16.49,2.82,21.8,8.46c5.3,5.64,7.96,13.4,7.96,23.3v57.45h-36.38
	v-45.8c0-3.72-0.94-6.62-2.83-8.7c-1.88-2.07-4.19-3.11-6.91-3.11c-2.72,0-5.1,1.04-7.15,3.11c-2.04,2.07-3.06,4.97-3.06,8.7v45.8
	h-36.38V75.8z M631.83,165c-5.32,0-10.24-1.09-14.76-3.27c-4.52-2.18-8.48-5.27-11.89-9.26c-3.41-3.99-6.06-8.72-7.98-14.2
	c-1.92-5.48-2.87-11.57-2.87-18.27v-0.32c0-6.91,0.98-13.19,2.95-18.83c1.96-5.64,4.61-10.48,7.96-14.52
	c3.34-4.04,7.27-7.15,11.78-9.33c4.51-2.18,9.31-3.27,14.4-3.27c6.58,0,11.88,1.22,15.92,3.67c4.03,2.45,7.43,5.21,10.19,8.3V46.43
	h36.38v116.49h-36.38l0.16-10.69c-1.49,1.6-3.06,3.17-4.71,4.71c-1.65,1.54-3.49,2.9-5.51,4.07c-2.02,1.17-4.31,2.13-6.86,2.87
	C638.05,164.62,635.13,165,631.83,165z M643.88,135.16c4.12,0,7.56-1.49,10.31-4.47c2.75-2.98,4.13-6.7,4.13-11.17v-0.32
	c0-2.13-0.37-4.15-1.11-6.06c-0.74-1.91-1.75-3.59-3.01-5.03c-1.27-1.44-2.8-2.55-4.6-3.35c-1.8-0.8-3.7-1.2-5.71-1.2
	c-4.13,0-7.56,1.49-10.32,4.47c-2.75,2.98-4.13,6.7-4.13,11.17v0.32c0,4.47,1.37,8.19,4.13,11.17
	C636.31,133.67,639.75,135.16,643.88,135.16z M729.97,165c-4.15,0-7.98-0.59-11.49-1.75c-3.51-1.17-6.54-2.9-9.1-5.19
	c-2.55-2.29-4.52-5.08-5.9-8.38c-1.38-3.3-2.07-7.13-2.07-11.49v-0.32c0-8.72,2.98-15.42,8.94-20.11
	c5.96-4.68,14.04-7.02,24.25-7.02c1.81,0,3.72,0.08,5.75,0.24c2.02,0.16,3.96,0.4,5.82,0.72c1.86,0.32,3.59,0.67,5.19,1.04
	c1.6,0.37,2.87,0.77,3.83,1.2v-1.44c0-4.04-1.28-7.15-3.83-9.33c-2.55-2.18-6.65-3.27-12.29-3.27c-4.47,0-8.64,0.45-12.53,1.36
	c-3.88,0.91-7.74,2.1-11.57,3.59l-6.38-24.1c5.11-1.92,10.58-3.46,16.44-4.63c5.85-1.17,12.61-1.75,20.27-1.75
	c8.94,0,16.36,0.93,22.26,2.79c5.9,1.86,10.77,4.71,14.6,8.54c3.3,3.3,5.64,7.13,7.02,11.49c1.38,4.36,2.07,9.73,2.07,16.12v49.63
	h-36.22v-8.78c-3.09,3.3-6.68,5.93-10.77,7.9C740.15,164.01,735.39,165,729.97,165z M744.33,144.09c3.19,0,5.85-1.2,7.98-3.59
	c2.13-2.39,3.19-5.67,3.19-9.81v-3.67c-1.06-0.42-2.34-0.77-3.83-1.04c-1.49-0.26-2.98-0.4-4.47-0.4c-3.62,0-6.38,0.93-8.3,2.79
	c-1.92,1.86-2.87,4.18-2.87,6.94v0.32c0,2.55,0.8,4.6,2.39,6.14C740.02,143.32,741.99,144.09,744.33,144.09z M801.77,46.43h36.38
	v116.49h-36.38V46.43z M848.85,46.43h37.66v23.14h-37.66V46.43z M849.49,75.8h36.38v87.13h-36.38V75.8z M891.45,75.8h37.98
	l14.04,43.72l14.2-43.72h37.5l-35.27,87.77h-33.19L891.45,75.8z M1045.76,165c-7.13,0-13.64-1.09-19.55-3.27
	c-5.9-2.18-10.96-5.24-15.16-9.18c-4.2-3.93-7.45-8.67-9.73-14.2c-2.29-5.53-3.43-11.7-3.43-18.51v-0.32
	c0-6.49,1.12-12.53,3.35-18.11c2.23-5.58,5.32-10.42,9.26-14.52c3.93-4.09,8.64-7.31,14.12-9.65c5.48-2.34,11.51-3.51,18.11-3.51
	c7.76,0,14.49,1.25,20.19,3.75c5.69,2.5,10.4,5.93,14.12,10.29c3.72,4.36,6.49,9.47,8.3,15.32c1.81,5.85,2.71,12.08,2.71,18.67
	c0,0.96,0,1.97,0,3.03c0,1.06-0.06,2.07-0.16,3.03h-56.01c1.28,3.83,3.35,6.73,6.22,8.7c2.87,1.97,6.28,2.95,10.21,2.95
	c3.3,0,6.36-0.74,9.18-2.23c2.82-1.49,5.67-3.72,8.54-6.7l19.47,15.48c-4.36,5.64-9.71,10.21-16.04,13.72
	C1063.13,163.24,1055.23,165,1045.76,165z M1055.01,111.86c-0.43-4.15-1.75-7.37-3.99-9.65c-2.23-2.29-4.95-3.43-8.14-3.43
	c-3.09,0-5.64,1.17-7.66,3.51c-2.02,2.34-3.3,5.53-3.83,9.57H1055.01z"/>
</svg>
