<?xml version="1.0" encoding="UTF-8" standalone="no"?>
<svg
   xmlns:dc="http://purl.org/dc/elements/1.1/"
   xmlns:cc="http://creativecommons.org/ns#"
   xmlns:rdf="http://www.w3.org/1999/02/22-rdf-syntax-ns#"
   xmlns:svg="http://www.w3.org/2000/svg"
   xmlns="http://www.w3.org/2000/svg"
   xmlns:sodipodi="http://sodipodi.sourceforge.net/DTD/sodipodi-0.dtd"
   xmlns:inkscape="http://www.inkscape.org/namespaces/inkscape"
   version="1.0"
   x="0px"
   y="0px"
   viewBox="0 0 1381.35 516.05"
   style="enable-background:new 0 0 1381.35 516.05;"
   xml:space="preserve"
   id="svg564"
   sodipodi:docname="LogoOndalive (1).svg"
   inkscape:version="1.0.1 (0767f8302a, 2020-10-17)"><metadata
   id="metadata570"><rdf:RDF><cc:Work
       rdf:about=""><dc:format>image/svg+xml</dc:format><dc:type
         rdf:resource="http://purl.org/dc/dcmitype/StillImage" /><dc:title></dc:title></cc:Work></rdf:RDF></metadata><defs
   id="defs568" /><sodipodi:namedview
   pagecolor="#ffffff"
   bordercolor="#666666"
   borderopacity="1"
   objecttolerance="10"
   gridtolerance="10"
   guidetolerance="10"
   inkscape:pageopacity="0"
   inkscape:pageshadow="2"
   inkscape:window-width="1366"
   inkscape:window-height="704"
   id="namedview566"
   showgrid="false"
   inkscape:zoom="0.60045337"
   inkscape:cx="598.97423"
   inkscape:cy="335.27797"
   inkscape:window-x="0"
   inkscape:window-y="27"
   inkscape:window-maximized="1"
   inkscape:current-layer="logo" />
<style
   type="text/css"
   id="style494">
	.st0{display:none;}
	.st1{display:inline;fill:#0E1023;}
	.st2{display:inline;fill:#FFFFFF;}
	.st3{fill:url(#SVGID_1_);}
	.st4{fill:#FFFFFF;}
	.st5{fill:url(#SVGID_2_);}
	.st6{fill:#0E1023;}
</style>
<g
   id="background"
   class="st0">
	<rect
   x="-1340.69"
   y="-303.73"
   class="st1"
   width="1198.9"
   height="1200.88"
   id="rect496" />
	<rect
   x="18.72"
   y="-303.73"
   class="st2"
   width="1198.9"
   height="1200.88"
   id="rect498" />
</g>
<g
   id="logo">
	<linearGradient
   id="SVGID_1_"
   gradientUnits="userSpaceOnUse"
   x1="-955.1884"
   y1="568.9786"
   x2="-1152.8346"
   y2="150.0167">
		<stop
   offset="0.2227"
   style="stop-color:#fff"
   id="stop501" />
		<stop
   offset="0.3289"
   style="stop-color:#5883FF"
   id="stop503" />
		<stop
   offset="0.5591"
   style="stop-color:#D61F8F"
   id="stop505" />
		<stop
   offset="0.7737"
   style="stop-color:#FF4440"
   id="stop507" />
		<stop
   offset="1"
   style="stop-color:#FFC304"
   id="stop509" />
	</linearGradient>
	<path
   class="st3"
   d="M-1118.04,247.05v-0.34c0-26.87-21.79-48.66-48.66-48.66c-26.87,0-48.66,21.79-48.66,48.66v0.34   c0,26.87,21.79,48.66,48.66,48.66C-1139.82,295.71-1118.04,273.93-1118.04,247.05z M-1175.95,246.92v-0.06   c0-5.11,4.14-9.25,9.25-9.25c5.11,0,9.25,4.14,9.25,9.25v0.06c0,5.11-4.14,9.25-9.25,9.25   C-1171.8,256.16-1175.95,252.02-1175.95,246.92z M-1038.72,257.87v-10.64c0-4.83-3.91-8.77-8.77-8.77c-2.4,0-4.6,0.99-6.21,2.56   c-1.58,1.61-2.56,3.81-2.56,6.21v10.64v16.49v57.87v6.04v21.08c0,31.66-25.65,57.31-57.31,57.31c-31.66,0-57.34-25.65-57.34-57.31   v-10.64v-7.68v-7.98c0-13.4,10.87-24.27,24.3-24.27c6.7,0,12.78,2.73,17.18,7.13c4.37,4.37,7.09,10.44,7.09,17.14v7.98v7.68v10.64   c0,4.83,3.91,8.77,8.77,8.77c2.4,0,4.6-0.99,6.21-2.56c1.58-1.61,2.56-3.81,2.56-6.21v-21.08v-6.04v-57.87v-16.49v-10.64   c0-31.66,25.65-57.34,57.31-57.34c31.66,0,57.34,25.68,57.34,57.34v10.64v16.49v7.98c0,13.4-10.87,24.27-24.3,24.27   c-6.7,0-12.78-2.73-17.18-7.13c-4.37-4.37-7.09-10.44-7.09-17.14v-7.98V257.87z M-930.59,407.58c0,13.43-10.87,24.3-24.27,24.3   h-26.3c-15.58,0-29.69-6.23-40.02-16.31c-0.16-0.16-0.34-0.31-0.5-0.48c-0.16-0.16-0.32-0.33-0.48-0.5   c-10.09-10.33-16.31-24.44-16.31-40.02v-10.64v-7.68v-7.98c0-13.4,10.87-24.27,24.3-24.27c6.7,0,12.78,2.73,17.18,7.13   c4.37,4.37,7.09,10.44,7.09,17.14v7.98v7.68v10.64c0,2.41,0.97,4.6,2.55,6.18c1.59,1.58,3.78,2.55,6.18,2.55h26.3   c6.7,0,12.78,2.73,17.14,7.09C-933.32,394.81-930.59,400.88-930.59,407.58z"
   id="path512" />
	<g
   id="g530">
		<path
   class="st4"
   d="M-904.22,345.26c-7.13,0-13.7-1.2-19.71-3.59c-6.01-2.39-11.17-5.66-15.48-9.81    c-4.31-4.15-7.66-8.96-10.05-14.44c-2.39-5.48-3.59-11.3-3.59-17.47v-0.32c0-6.17,1.22-12.02,3.67-17.55    c2.45-5.53,5.82-10.37,10.13-14.52c4.31-4.15,9.47-7.45,15.48-9.89c6.01-2.45,12.63-3.67,19.87-3.67c7.13,0,13.7,1.2,19.71,3.59    c6.01,2.39,11.17,5.66,15.48,9.81c4.31,4.15,7.66,8.96,10.05,14.44c2.39,5.48,3.59,11.3,3.59,17.47v0.32    c0,6.17-1.22,12.02-3.67,17.55c-2.45,5.53-5.82,10.37-10.13,14.52s-9.49,7.45-15.56,9.89    C-890.49,344.03-897.09,345.26-904.22,345.26z M-903.9,314.94c4.04,0,7.39-1.47,10.05-4.42c2.66-2.95,3.99-6.48,3.99-10.58v-0.32    c0-4.32-1.38-7.95-4.15-10.9c-2.77-2.95-6.17-4.42-10.21-4.42c-4.04,0-7.4,1.48-10.05,4.42c-2.66,2.95-3.99,6.48-3.99,10.58v0.32    c0,4.32,1.38,7.95,4.15,10.9C-911.35,313.46-907.94,314.94-903.9,314.94z"
   id="path514" />
		<path
   class="st4"
   d="M-846.93,256.06h36.38v12.13c1.38-1.81,2.97-3.56,4.77-5.27c1.8-1.7,3.82-3.22,6.05-4.55    c2.23-1.33,4.64-2.39,7.24-3.19c2.6-0.8,5.44-1.2,8.52-1.2c9.23,0,16.49,2.82,21.8,8.46c5.3,5.64,7.96,13.4,7.96,23.3v57.45    h-36.38v-45.8c0-3.72-0.94-6.62-2.83-8.7c-1.88-2.07-4.19-3.11-6.91-3.11c-2.72,0-5.1,1.04-7.15,3.11    c-2.04,2.07-3.06,4.97-3.06,8.7v45.8h-36.38V256.06z"
   id="path516" />
		<path
   class="st4"
   d="M-709.06,345.26c-5.32,0-10.24-1.09-14.76-3.27c-4.52-2.18-8.48-5.27-11.89-9.26    c-3.41-3.99-6.06-8.72-7.98-14.2c-1.92-5.48-2.87-11.57-2.87-18.27v-0.32c0-6.91,0.98-13.19,2.95-18.83    c1.96-5.64,4.61-10.48,7.96-14.52c3.34-4.04,7.27-7.15,11.78-9.33c4.51-2.18,9.31-3.27,14.4-3.27c6.58,0,11.88,1.22,15.92,3.67    c4.03,2.45,7.43,5.21,10.19,8.3v-39.25h36.38v116.49h-36.38l0.16-10.69c-1.49,1.6-3.06,3.17-4.71,4.71    c-1.65,1.54-3.49,2.9-5.51,4.07c-2.02,1.17-4.31,2.13-6.86,2.87C-702.84,344.88-705.76,345.26-709.06,345.26z M-697.01,315.42    c4.12,0,7.56-1.49,10.31-4.47c2.75-2.98,4.13-6.7,4.13-11.17v-0.32c0-2.13-0.37-4.15-1.11-6.06c-0.74-1.91-1.75-3.59-3.01-5.03    c-1.27-1.44-2.8-2.55-4.6-3.35c-1.8-0.8-3.7-1.2-5.71-1.2c-4.13,0-7.56,1.49-10.32,4.47c-2.75,2.98-4.13,6.7-4.13,11.17v0.32    c0,4.47,1.37,8.19,4.13,11.17C-704.58,313.93-701.14,315.42-697.01,315.42z"
   id="path518" />
		<path
   class="st4"
   d="M-610.92,345.26c-4.15,0-7.98-0.59-11.49-1.75c-3.51-1.17-6.54-2.9-9.1-5.19c-2.55-2.29-4.52-5.08-5.9-8.38    c-1.38-3.3-2.07-7.13-2.07-11.49v-0.32c0-8.72,2.98-15.42,8.94-20.11c5.96-4.68,14.04-7.02,24.25-7.02c1.81,0,3.72,0.08,5.75,0.24    c2.02,0.16,3.96,0.4,5.82,0.72c1.86,0.32,3.59,0.67,5.19,1.04c1.6,0.37,2.87,0.77,3.83,1.2v-1.44c0-4.04-1.28-7.15-3.83-9.33    c-2.55-2.18-6.65-3.27-12.29-3.27c-4.47,0-8.64,0.45-12.53,1.36c-3.88,0.91-7.74,2.1-11.57,3.59l-6.38-24.1    c5.11-1.92,10.58-3.46,16.44-4.63c5.85-1.17,12.61-1.75,20.27-1.75c8.94,0,16.36,0.93,22.26,2.79c5.9,1.86,10.77,4.71,14.6,8.54    c3.3,3.3,5.64,7.13,7.02,11.49c1.38,4.36,2.07,9.73,2.07,16.12v49.63h-36.22v-8.78c-3.09,3.3-6.68,5.93-10.77,7.9    C-600.74,344.27-605.5,345.26-610.92,345.26z M-596.56,324.35c3.19,0,5.85-1.2,7.98-3.59c2.13-2.39,3.19-5.67,3.19-9.81v-3.67    c-1.06-0.42-2.34-0.77-3.83-1.04c-1.49-0.26-2.98-0.4-4.47-0.4c-3.62,0-6.38,0.93-8.3,2.79c-1.92,1.86-2.87,4.18-2.87,6.94v0.32    c0,2.55,0.8,4.6,2.39,6.14C-600.87,323.58-598.9,324.35-596.56,324.35z"
   id="path520" />
		<path
   class="st4"
   d="M-539.12,226.69h36.38v116.49h-36.38V226.69z"
   id="path522" />
		<path
   class="st4"
   d="M-492.04,226.69h37.66v23.14h-37.66V226.69z M-491.41,256.06h36.38v87.13h-36.38V256.06z"
   id="path524" />
		<path
   class="st4"
   d="M-449.44,256.06h37.98l14.04,43.72l14.2-43.72h37.5l-35.27,87.77h-33.19L-449.44,256.06z"
   id="path526" />
		<path
   class="st4"
   d="M-295.13,345.26c-7.13,0-13.64-1.09-19.55-3.27s-10.96-5.24-15.16-9.18c-4.2-3.93-7.45-8.67-9.73-14.2    c-2.29-5.53-3.43-11.7-3.43-18.51v-0.32c0-6.49,1.12-12.53,3.35-18.11c2.23-5.58,5.32-10.42,9.26-14.52    c3.93-4.09,8.64-7.31,14.12-9.65c5.48-2.34,11.51-3.51,18.11-3.51c7.76,0,14.49,1.25,20.19,3.75c5.69,2.5,10.4,5.93,14.12,10.29    c3.72,4.36,6.49,9.47,8.3,15.32c1.81,5.85,2.71,12.08,2.71,18.67c0,0.96,0,1.97,0,3.03c0,1.06-0.06,2.07-0.16,3.03h-56.01    c1.28,3.83,3.35,6.73,6.22,8.7c2.87,1.97,6.28,2.95,10.21,2.95c3.3,0,6.36-0.74,9.18-2.23c2.82-1.49,5.67-3.72,8.54-6.7    l19.47,15.48c-4.36,5.64-9.71,10.21-16.04,13.72C-277.77,343.5-285.67,345.26-295.13,345.26z M-285.88,292.12    c-0.43-4.15-1.75-7.37-3.99-9.65c-2.23-2.29-4.95-3.43-8.14-3.43c-3.09,0-5.64,1.17-7.66,3.51c-2.02,2.34-3.3,5.53-3.83,9.57    H-285.88z"
   id="path528" />
	</g>
	<linearGradient
   id="SVGID_2_"
   gradientUnits="userSpaceOnUse"
   x1="404.2218"
   y1="568.9786"
   x2="206.5756"
   y2="150.0167">
		<stop
   offset="0.2227"
   style="stop-color:#01F5BD"
   id="stop532" />
		<stop
   offset="0.3289"
   style="stop-color:#5883FF"
   id="stop534" />
		<stop
   offset="0.5591"
   style="stop-color:#D61F8F"
   id="stop536" />
		<stop
   offset="0.7737"
   style="stop-color:#FF4440"
   id="stop538" />
		<stop
   offset="1"
   style="stop-color:#FFC304"
   id="stop540" />
	</linearGradient>
	<path
   class="st5"
   d="M241.37,247.05v-0.34c0-26.87-21.79-48.66-48.66-48.66c-26.87,0-48.66,21.79-48.66,48.66v0.34   c0,26.87,21.79,48.66,48.66,48.66C219.59,295.71,241.37,273.93,241.37,247.05z M183.46,246.92v-0.06c0-5.11,4.14-9.25,9.25-9.25   c5.11,0,9.25,4.14,9.25,9.25v0.06c0,5.11-4.14,9.25-9.25,9.25C187.61,256.16,183.46,252.02,183.46,246.92z M320.69,257.87v-10.64   c0-4.83-3.91-8.77-8.77-8.77c-2.4,0-4.6,0.99-6.21,2.56c-1.58,1.61-2.56,3.81-2.56,6.21v10.64v16.49v57.87v6.04v21.08   c0,31.66-25.65,57.31-57.31,57.31c-31.66,0-57.34-25.65-57.34-57.31v-10.64v-7.68v-7.98c0-13.4,10.87-24.27,24.3-24.27   c6.7,0,12.78,2.73,17.18,7.13c4.37,4.37,7.09,10.44,7.09,17.14v7.98v7.68v10.64c0,4.83,3.91,8.77,8.77,8.77   c2.4,0,4.6-0.99,6.21-2.56c1.58-1.61,2.56-3.81,2.56-6.21v-21.08v-6.04v-57.87v-16.49v-10.64c0-31.66,25.65-57.34,57.31-57.34   c31.66,0,57.34,25.68,57.34,57.34v10.64v16.49v7.98c0,13.4-10.87,24.27-24.3,24.27c-6.7,0-12.78-2.73-17.18-7.13   c-4.37-4.37-7.09-10.44-7.09-17.14v-7.98V257.87z M428.82,407.58c0,13.43-10.87,24.3-24.27,24.3h-26.3   c-15.58,0-29.69-6.23-40.02-16.31c-0.16-0.16-0.34-0.31-0.5-0.48c-0.16-0.16-0.32-0.33-0.48-0.5   c-10.09-10.33-16.31-24.44-16.31-40.02v-10.64v-7.68v-7.98c0-13.4,10.87-24.27,24.3-24.27c6.7,0,12.78,2.73,17.18,7.13   c4.37,4.37,7.09,10.44,7.09,17.14v7.98v7.68v10.64c0,2.41,0.97,4.6,2.55,6.18c1.59,1.58,3.78,2.55,6.18,2.55h26.3   c6.7,0,12.78,2.73,17.14,7.09C426.09,394.81,428.82,400.88,428.82,407.58z"
   id="path543"
   style="fill:#ffff00" />
	<g
   id="g561">
		<path
   class="st6"
   d="M455.19,345.26c-7.13,0-13.7-1.2-19.71-3.59c-6.01-2.39-11.17-5.66-15.48-9.81    c-4.31-4.15-7.66-8.96-10.05-14.44c-2.39-5.48-3.59-11.3-3.59-17.47v-0.32c0-6.17,1.22-12.02,3.67-17.55    c2.45-5.53,5.82-10.37,10.13-14.52c4.31-4.15,9.47-7.45,15.48-9.89c6.01-2.45,12.63-3.67,19.87-3.67c7.13,0,13.7,1.2,19.71,3.59    c6.01,2.39,11.17,5.66,15.48,9.81c4.31,4.15,7.66,8.96,10.05,14.44c2.39,5.48,3.59,11.3,3.59,17.47v0.32    c0,6.17-1.22,12.02-3.67,17.55c-2.45,5.53-5.82,10.37-10.13,14.52s-9.49,7.45-15.56,9.89    C468.92,344.03,462.32,345.26,455.19,345.26z M455.51,314.94c4.04,0,7.39-1.47,10.05-4.42c2.66-2.95,3.99-6.48,3.99-10.58v-0.32    c0-4.32-1.38-7.95-4.15-10.9c-2.77-2.95-6.17-4.42-10.21-4.42c-4.04,0-7.4,1.48-10.05,4.42c-2.66,2.95-3.99,6.48-3.99,10.58v0.32    c0,4.32,1.38,7.95,4.15,10.9C448.06,313.46,451.47,314.94,455.51,314.94z"
   id="path545" />
		<path
   class="st6"
   d="M512.48,256.06h36.38v12.13c1.38-1.81,2.97-3.56,4.77-5.27c1.8-1.7,3.82-3.22,6.05-4.55    c2.23-1.33,4.64-2.39,7.24-3.19c2.6-0.8,5.44-1.2,8.52-1.2c9.23,0,16.49,2.82,21.8,8.46c5.3,5.64,7.96,13.4,7.96,23.3v57.45    h-36.38v-45.8c0-3.72-0.94-6.62-2.83-8.7c-1.88-2.07-4.19-3.11-6.91-3.11c-2.72,0-5.1,1.04-7.15,3.11    c-2.04,2.07-3.06,4.97-3.06,8.7v45.8h-36.38V256.06z"
   id="path547" />
		<path
   class="st6"
   d="M650.35,345.26c-5.32,0-10.24-1.09-14.76-3.27c-4.52-2.18-8.48-5.27-11.89-9.26    c-3.41-3.99-6.06-8.72-7.98-14.2c-1.92-5.48-2.87-11.57-2.87-18.27v-0.32c0-6.91,0.98-13.19,2.95-18.83    c1.96-5.64,4.61-10.48,7.96-14.52c3.34-4.04,7.27-7.15,11.78-9.33c4.51-2.18,9.31-3.27,14.4-3.27c6.58,0,11.88,1.22,15.92,3.67    c4.03,2.45,7.43,5.21,10.19,8.3v-39.25h36.38v116.49h-36.38l0.16-10.69c-1.49,1.6-3.06,3.17-4.71,4.71    c-1.65,1.54-3.49,2.9-5.51,4.07c-2.02,1.17-4.31,2.13-6.86,2.87C656.57,344.88,653.65,345.26,650.35,345.26z M662.4,315.42    c4.12,0,7.56-1.49,10.31-4.47c2.75-2.98,4.13-6.7,4.13-11.17v-0.32c0-2.13-0.37-4.15-1.11-6.06c-0.74-1.91-1.75-3.59-3.01-5.03    c-1.27-1.44-2.8-2.55-4.6-3.35c-1.8-0.8-3.7-1.2-5.71-1.2c-4.13,0-7.56,1.49-10.32,4.47c-2.75,2.98-4.13,6.7-4.13,11.17v0.32    c0,4.47,1.37,8.19,4.13,11.17C654.83,313.93,658.27,315.42,662.4,315.42z"
   id="path549" />
		<path
   class="st6"
   d="M748.49,345.26c-4.15,0-7.98-0.59-11.49-1.75c-3.51-1.17-6.54-2.9-9.1-5.19c-2.55-2.29-4.52-5.08-5.9-8.38    c-1.38-3.3-2.07-7.13-2.07-11.49v-0.32c0-8.72,2.98-15.42,8.94-20.11c5.96-4.68,14.04-7.02,24.25-7.02c1.81,0,3.72,0.08,5.75,0.24    c2.02,0.16,3.96,0.4,5.82,0.72c1.86,0.32,3.59,0.67,5.19,1.04c1.6,0.37,2.87,0.77,3.83,1.2v-1.44c0-4.04-1.28-7.15-3.83-9.33    c-2.55-2.18-6.65-3.27-12.29-3.27c-4.47,0-8.64,0.45-12.53,1.36c-3.88,0.91-7.74,2.1-11.57,3.59L727.1,261    c5.11-1.92,10.58-3.46,16.44-4.63c5.85-1.17,12.61-1.75,20.27-1.75c8.94,0,16.36,0.93,22.26,2.79c5.9,1.86,10.77,4.71,14.6,8.54    c3.3,3.3,5.64,7.13,7.02,11.49c1.38,4.36,2.07,9.73,2.07,16.12v49.63h-36.22v-8.78c-3.09,3.3-6.68,5.93-10.77,7.9    C758.67,344.27,753.91,345.26,748.49,345.26z M762.85,324.35c3.19,0,5.85-1.2,7.98-3.59c2.13-2.39,3.19-5.67,3.19-9.81v-3.67    c-1.06-0.42-2.34-0.77-3.83-1.04c-1.49-0.26-2.98-0.4-4.47-0.4c-3.62,0-6.38,0.93-8.3,2.79c-1.92,1.86-2.87,4.18-2.87,6.94v0.32    c0,2.55,0.8,4.6,2.39,6.14C758.54,323.58,760.51,324.35,762.85,324.35z"
   id="path551" />
		<path
   class="st6"
   d="M820.29,226.69h36.38v116.49h-36.38V226.69z"
   id="path553" />
		<path
   class="st6"
   d="M867.37,226.69h37.66v23.14h-37.66V226.69z M868,256.06h36.38v87.13H868V256.06z"
   id="path555" />
		<path
   class="st6"
   d="M909.97,256.06h37.98l14.04,43.72l14.2-43.72h37.5l-35.27,87.77h-33.19L909.97,256.06z"
   id="path557" />
		<path
   class="st6"
   d="M1064.28,345.26c-7.13,0-13.64-1.09-19.55-3.27s-10.96-5.24-15.16-9.18c-4.2-3.93-7.45-8.67-9.73-14.2    c-2.29-5.53-3.43-11.7-3.43-18.51v-0.32c0-6.49,1.12-12.53,3.35-18.11c2.23-5.58,5.32-10.42,9.26-14.52    c3.93-4.09,8.64-7.31,14.12-9.65c5.48-2.34,11.51-3.51,18.11-3.51c7.76,0,14.49,1.25,20.19,3.75c5.69,2.5,10.4,5.93,14.12,10.29    c3.72,4.36,6.49,9.47,8.3,15.32c1.81,5.85,2.71,12.08,2.71,18.67c0,0.96,0,1.97,0,3.03c0,1.06-0.06,2.07-0.16,3.03h-56.01    c1.28,3.83,3.35,6.73,6.22,8.7c2.87,1.97,6.28,2.95,10.21,2.95c3.3,0,6.36-0.74,9.18-2.23c2.82-1.49,5.67-3.72,8.54-6.7    l19.47,15.48c-4.36,5.64-9.71,10.21-16.04,13.72C1081.64,343.5,1073.75,345.26,1064.28,345.26z M1073.53,292.12    c-0.43-4.15-1.75-7.37-3.99-9.65c-2.23-2.29-4.95-3.43-8.14-3.43c-3.09,0-5.64,1.17-7.66,3.51c-2.02,2.34-3.3,5.53-3.83,9.57    H1073.53z"
   id="path559" />
	</g>
</g>
</svg>
